<svg xmlns="http://www.w3.org/2000/svg" viewBox="0 0 24 24" fill="#000">
  <path d="M12 .5a11.5 11.5 0 0 0-3.64 22.42c.58.11.8-.25.8-.56v-2.01c-3.26.71-3.95-1.57-3.95-1.57-.53-1.35-1.29-1.7-1.29-1.7-1.06-.72.08-.71.08-.71 1.17.08 1.79 1.2 1.79 1.2 1.04 1.78 2.73 1.26 3.4.96.11-.76.41-1.26.74-1.55-2.6-.3-5.34-1.31-5.34-5.84 0-1.29.46-2.35 1.2-3.18-.12-.29-.52-1.47.11-3.06 0 0 .98-.31 3.2 1.21a11.12 11.12 0 0 1 5.82 0c2.22-1.52 3.2-1.21 3.2-1.21.63 1.59.23 2.77.11 3.06.75.83 1.2 1.89 1.2 3.18 0 4.54-2.74 5.53-5.36 5.82.42.36.8 1.07.8 2.15v3.19c0 .31.21.68.81.56A11.5 11.5 0 0 0 12 .5Z"/>
</svg>
